<svg width="20" height="20" viewBox="0 0 20 20" fill="none" xmlns="http://www.w3.org/2000/svg">
<path fill-rule="evenodd" clip-rule="evenodd" d="M17.2958 0H2.69364C1.20601 0 0 1.20597 0 2.69364V17.2959C0 18.7836 1.20597 19.9895 2.69364 19.9895H9.89535L9.90763 12.8464H8.05183C7.81066 12.8464 7.61491 12.6513 7.61399 12.4102L7.60509 10.1076C7.60416 9.86514 7.80049 9.66807 8.04298 9.66807H9.8954V7.44323C9.8954 4.86132 11.4723 3.45545 13.7755 3.45545H15.6655C15.9073 3.45545 16.1034 3.65149 16.1034 3.89335V5.83487C16.1034 6.07663 15.9074 6.27262 15.6657 6.27276L14.5059 6.2733C13.2533 6.2733 13.0108 6.86851 13.0108 7.742V9.66812H15.7631C16.0253 9.66812 16.2288 9.89711 16.1979 10.1576L15.925 12.4601C15.8989 12.6804 15.712 12.8465 15.4902 12.8465H13.023L13.0108 19.9896H17.2959C18.7835 19.9896 19.9895 18.7837 19.9895 17.296V2.69364C19.9894 1.20597 18.7835 0 17.2958 0Z" fill="white"/>
</svg>
