<svg width="24" height="24" viewBox="0 0 24 16" fill="none" xmlns="http://www.w3.org/2000/svg">
<g filter="url(#filter0_d)">
<path d="M18.7358 4.69811C18.8817 4.69811 19 4.57977 19 4.43396V1.26415C19 1.22981 18.9929 1.19547 18.9797 1.16325C18.953 1.09879 18.9015 1.04728 18.8368 1.02034C18.8045 1.00713 18.7702 1 18.7358 1H15.566C15.4202 1 15.3019 1.11834 15.3019 1.26415C15.3019 1.40996 15.4202 1.5283 15.566 1.5283H18.0982L12 7.62649L5.90181 1.5283H8.43396C8.57977 1.5283 8.69811 1.40996 8.69811 1.26415C8.69811 1.11834 8.57977 1 8.43396 1H5.26415C5.22981 1 5.19547 1.00713 5.16325 1.02034C5.09853 1.04728 5.04728 1.09853 5.02034 1.16325C5.00713 1.19547 5 1.22981 5 1.26415V4.43396C5 4.57977 5.11834 4.69811 5.26415 4.69811C5.40996 4.69811 5.5283 4.57977 5.5283 4.43396V1.90181L11.6265 8L5.5283 14.0982V11.566C5.5283 11.4202 5.40996 11.3019 5.26415 11.3019C5.11834 11.3019 5 11.4202 5 11.566V14.7358C5 14.7702 5.00713 14.8045 5.02034 14.8368C5.04702 14.9012 5.09853 14.9527 5.16325 14.9797C5.19547 14.9929 5.22981 15 5.26415 15H8.43396C8.57977 15 8.69811 14.8817 8.69811 14.7358C8.69811 14.59 8.57977 14.4717 8.43396 14.4717H5.90181L12 8.37351L18.0982 14.4717H15.566C15.4202 14.4717 15.3019 14.59 15.3019 14.7358C15.3019 14.8817 15.4202 15 15.566 15H18.7358C18.7702 15 18.8045 14.9929 18.8368 14.9797C18.9012 14.953 18.9527 14.9015 18.9797 14.8368C18.9929 14.8045 19 14.7702 19 14.7358V11.566C19 11.4202 18.8817 11.3019 18.7358 11.3019C18.59 11.3019 18.4717 11.4202 18.4717 11.566V14.0982L12.3735 8L18.4717 1.90181V4.43396C18.4717 4.57977 18.59 4.69811 18.7358 4.69811Z" fill="white"/>
<path d="M18.7358 4.69811C18.8817 4.69811 19 4.57977 19 4.43396V1.26415C19 1.22981 18.9929 1.19547 18.9797 1.16325C18.953 1.09879 18.9015 1.04728 18.8368 1.02034C18.8045 1.00713 18.7702 1 18.7358 1H15.566C15.4202 1 15.3019 1.11834 15.3019 1.26415C15.3019 1.40996 15.4202 1.5283 15.566 1.5283H18.0982L12 7.62649L5.90181 1.5283H8.43396C8.57977 1.5283 8.69811 1.40996 8.69811 1.26415C8.69811 1.11834 8.57977 1 8.43396 1H5.26415C5.22981 1 5.19547 1.00713 5.16325 1.02034C5.09853 1.04728 5.04728 1.09853 5.02034 1.16325C5.00713 1.19547 5 1.22981 5 1.26415V4.43396C5 4.57977 5.11834 4.69811 5.26415 4.69811C5.40996 4.69811 5.5283 4.57977 5.5283 4.43396V1.90181L11.6265 8L5.5283 14.0982V11.566C5.5283 11.4202 5.40996 11.3019 5.26415 11.3019C5.11834 11.3019 5 11.4202 5 11.566V14.7358C5 14.7702 5.00713 14.8045 5.02034 14.8368C5.04702 14.9012 5.09853 14.9527 5.16325 14.9797C5.19547 14.9929 5.22981 15 5.26415 15H8.43396C8.57977 15 8.69811 14.8817 8.69811 14.7358C8.69811 14.59 8.57977 14.4717 8.43396 14.4717H5.90181L12 8.37351L18.0982 14.4717H15.566C15.4202 14.4717 15.3019 14.59 15.3019 14.7358C15.3019 14.8817 15.4202 15 15.566 15H18.7358C18.7702 15 18.8045 14.9929 18.8368 14.9797C18.9012 14.953 18.9527 14.9015 18.9797 14.8368C18.9929 14.8045 19 14.7702 19 14.7358V11.566C19 11.4202 18.8817 11.3019 18.7358 11.3019C18.59 11.3019 18.4717 11.4202 18.4717 11.566V14.0982L12.3735 8L18.4717 1.90181V4.43396C18.4717 4.57977 18.59 4.69811 18.7358 4.69811Z" stroke="white"/>
</g>
<defs>
<filter id="filter0_d" x="0.5" y="0.5" width="23" height="23" filterUnits="userSpaceOnUse" color-interpolation-filters="sRGB">
<feFlood flood-opacity="0" result="BackgroundImageFix"/>
<feColorMatrix in="SourceAlpha" type="matrix" values="0 0 0 0 0 0 0 0 0 0 0 0 0 0 0 0 0 0 127 0"/>
<feOffset dy="4"/>
<feGaussianBlur stdDeviation="2"/>
<feColorMatrix type="matrix" values="0 0 0 0 0 0 0 0 0 0 0 0 0 0 0 0 0 0 0.25 0"/>
<feBlend mode="normal" in2="BackgroundImageFix" result="effect1_dropShadow"/>
<feBlend mode="normal" in="SourceGraphic" in2="effect1_dropShadow" result="shape"/>
</filter>
</defs>
</svg>
