<svg width="20" height="20" viewBox="0 0 20 20" fill="none" xmlns="http://www.w3.org/2000/svg">
<path fill-rule="evenodd" clip-rule="evenodd" d="M5.94768 0H14.0173C17.2968 0 19.965 2.66812 19.965 5.94768V14.0173C19.965 17.2969 17.2969 19.965 14.0173 19.965H5.94768C2.66812 19.965 0 17.2969 0 14.0173V5.94768C0 2.66812 2.66812 0 5.94768 0ZM14.0173 17.9565C16.1929 17.9565 17.9565 16.1929 17.9565 14.0173V5.94768C17.9565 3.7721 16.1929 2.00848 14.0173 2.00848H5.94768C3.77214 2.00848 2.00848 3.7721 2.00848 5.94768V14.0173C2.00848 16.1929 3.77214 17.9565 5.94768 17.9565H14.0173Z" fill="white"/>
<path fill-rule="evenodd" clip-rule="evenodd" d="M4.81836 9.98198C4.81836 7.13477 7.13477 4.81836 9.98202 4.81836C12.8293 4.81836 15.1457 7.13474 15.1457 9.98198C15.1457 12.8292 12.8293 15.1456 9.98202 15.1456C7.13477 15.1456 4.81836 12.8292 4.81836 9.98198ZM6.82684 9.98202C6.82684 11.7246 8.23945 13.1372 9.98202 13.1372C11.7246 13.1372 13.1372 11.7246 13.1372 9.98202C13.1372 8.23945 11.7246 6.82684 9.98202 6.82684C8.23948 6.82684 6.82684 8.23945 6.82684 9.98202Z" fill="white"/>
<path fill-rule="evenodd" clip-rule="evenodd" d="M15.1563 6.09475C15.8396 6.09475 16.3936 5.54079 16.3936 4.85744C16.3936 4.17408 15.8396 3.62012 15.1563 3.62012C14.4729 3.62012 13.9189 4.17408 13.9189 4.85744C13.9189 5.54079 14.4729 6.09475 15.1563 6.09475Z" fill="white"/>
</svg>
